# Blender v2.82 (sub 7) OBJ File: ''
# www.blender.org
o Sphere
v -0.204401 0.885148 -0.530755
v -0.321139 0.152368 -0.975815
v 0.303123 -0.099021 -0.989106
v 0.535892 0.509071 -0.745914
v 0.365776 -0.587846 -0.796820
v 0.920339 0.090717 -0.481215
v 0.381094 -0.957124 -0.247577
v 0.309862 0.943318 -0.282181
v 0.994283 -0.325682 -0.007848
v 0.896644 0.536957 0.154152
v 0.758648 -0.455126 0.554121
v 0.543800 0.239745 0.869746
v 0.330811 0.868611 0.444585
v -0.365299 0.515348 0.825499
v 0.075435 0.206945 1.022576
v 0.114305 -0.658113 0.793022
v -0.410482 -0.311945 0.895952
v -0.759100 0.586728 0.361253
v -0.967598 -0.188229 0.397977
v -0.188929 0.987324 0.243577
v -0.597196 -0.785468 0.362565
v 0.073739 -1.024805 0.154873
v -0.768860 0.643993 -0.294522
v -0.976248 -0.030688 -0.390646
v -0.529483 -0.832290 -0.315235
v -0.510430 -0.502699 -0.751821
vt 0.827247 0.811383
vt 0.734375 1.000000
vt 0.608795 0.860754
vt 0.652882 0.664370
vt 0.804071 0.544218
vt 0.702279 0.471674
vt 0.570091 0.517255
vt 0.502420 0.401904
vt 0.680720 0.309712
vt 0.473272 0.663288
vt 0.399088 0.361369
vt 0.594211 0.175775
vt 0.558597 0.074202
vt 0.339916 0.571809
vt 0.270653 0.283141
vt 0.352620 0.815540
vt 0.259675 0.563607
vt 0.185728 0.401903
vt 0.180802 0.654772
vt 0.085170 0.234428
vt 0.184898 0.893619
vt 0.070316 0.695143
vt 1.000000 0.334687
vt 0.943585 0.488329
vt 0.907378 0.207006
vt 0.996354 0.174786
vt 0.000000 0.479867
vt 0.000000 0.725079
vt 0.235909 0.074785
vt 0.058578 0.450163
vt 0.985236 0.918502
vt 0.941907 0.713127
vt 0.945930 0.046024
vt 0.845200 0.344076
vn -0.0493 0.9903 -0.1297
vn 0.2095 0.7626 -0.6120
vn 0.0142 0.5174 -0.8556
vn 0.6197 0.0752 -0.7812
vn 0.7750 -0.4095 -0.4813
vn 0.6823 0.6693 -0.2942
vn 0.6880 -0.7151 0.1238
vn 0.9193 0.0303 0.3924
vn 0.5221 -0.8115 0.2623
vn 0.8844 0.0634 0.4624
vn 0.4083 -0.2698 0.8720
vn 0.2112 0.5955 0.7751
vn 0.0210 -0.2555 0.9666
vn -0.3480 0.0984 0.9323
vn -0.2994 -0.6591 0.6899
vn -0.4337 0.7596 0.4847
vn -0.8665 -0.4913 -0.0886
vn -0.8501 -0.5243 -0.0487
vn 0.1134 0.3312 -0.9367
vn 0.6585 -0.2009 -0.7252
vn -0.9567 0.2885 0.0394
vn 0.7294 -0.5581 -0.3956
vn 0.7898 0.5154 -0.3325
vn 0.9914 0.1213 -0.0482
vn 0.5314 0.8441 0.0714
vn 0.1865 0.9778 0.0951
vn 0.6143 0.5741 0.5413
vn 0.4131 -0.8007 0.4338
vn 0.3164 -0.2300 0.9203
vn 0.0992 0.6326 0.7681
vn -0.0598 0.7841 0.6178
vn -0.1496 -0.8531 0.4997
vn -0.6507 0.0996 0.7528
vn -0.6507 -0.4403 0.6186
vn -0.7255 0.2260 0.6501
vn -0.0724 -0.8286 -0.5551
vn -0.5619 0.8233 0.0803
vn -0.4290 0.8966 -0.1097
vn -0.3268 -0.9445 0.0326
vn -0.7869 -0.4755 -0.3933
vn -0.5078 0.5049 -0.6980
vn -0.6805 0.3042 -0.6667
vn -0.6539 -0.0687 -0.7535
vn -0.0838 -0.3741 -0.9236
vn -0.1134 -0.9620 -0.2484
vn -0.9630 0.2621 0.0629
vn -0.1078 -0.7912 -0.6020
vn -0.1351 -0.2854 -0.9488
s off
f 1/1/1 20/2/1 8/3/1
f 8/3/2 4/4/2 1/1/2
f 1/1/3 4/4/3 2/5/3
f 3/6/4 4/4/4 6/7/4
f 6/7/5 9/8/5 5/9/5
f 8/3/6 10/10/6 4/4/6
f 9/8/7 11/11/7 7/12/7
f 10/10/8 11/11/8 9/8/8
f 7/12/9 11/11/9 22/13/9
f 10/10/10 12/14/10 11/11/10
f 12/14/11 16/15/11 11/11/11
f 13/16/12 15/17/12 12/14/12
f 15/17/13 17/18/13 16/15/13
f 14/19/14 17/18/14 15/17/14
f 17/18/15 21/20/15 16/15/15
f 14/19/16 20/21/16 18/22/16
f 19/23/17 24/24/17 25/25/17
f 19/23/18 25/25/18 21/26/18
f 2/5/19 4/4/19 3/6/19
f 3/6/20 6/7/20 5/9/20
f 24/27/21 18/22/21 23/28/21
f 7/12/22 5/9/22 9/8/22
f 4/4/23 10/10/23 6/7/23
f 6/7/24 10/10/24 9/8/24
f 8/3/25 13/16/25 10/10/25
f 8/3/26 20/21/26 13/16/26
f 10/10/27 13/16/27 12/14/27
f 22/13/28 11/11/28 16/15/28
f 12/14/29 15/17/29 16/15/29
f 13/16/30 14/19/30 15/17/30
f 14/19/31 13/16/31 20/21/31
f 22/29/32 16/15/32 21/20/32
f 17/18/33 14/19/33 19/30/33
f 17/18/34 19/30/34 21/20/34
f 19/30/35 14/19/35 18/22/35
f 25/25/36 5/9/36 7/12/36
f 18/22/37 20/21/37 23/28/37
f 20/31/38 1/1/38 23/32/38
f 21/26/39 25/25/39 22/33/39
f 25/25/40 24/24/40 26/34/40
f 23/32/41 1/1/41 2/5/41
f 24/24/42 23/32/42 2/5/42
f 24/24/43 2/5/43 26/34/43
f 26/34/44 3/6/44 5/9/44
f 22/33/45 25/25/45 7/12/45
f 24/27/46 19/30/46 18/22/46
f 25/25/47 26/34/47 5/9/47
f 26/34/48 2/5/48 3/6/48
